<?xml version="1.0" encoding="UTF-8"?>
<svg version="1.1" xmlns="http://www.w3.org/2000/svg" width="500" height="500">
<path d="M0 0 C0.5990918 0.39944824 1.19818359 0.79889648 1.81542969 1.21044922 C19.34442937 13.01085965 34.99542448 27.34219566 48 44 C49.09441406 45.38638672 49.09441406 45.38638672 50.2109375 46.80078125 C73.03212863 76.38825537 86.51198713 110.1189142 92 147 C92.1038501 147.67571045 92.2077002 148.3514209 92.31469727 149.04760742 C98.67954893 196.87852237 86.53693561 249.37479695 59 289 C58.5963623 289.59151855 58.19272461 290.18303711 57.77685547 290.79248047 C52.9434861 297.86593427 47.92039676 304.51029114 42.0625 310.78515625 C40.23755173 312.74490183 38.52395645 314.75447362 36.8125 316.8125 C15.58175973 341.0832077 -14.48318662 360.28626618 -45.00146484 370.33789062 C-47.14254187 371.04722374 -49.26736471 371.79692727 -51.39453125 372.546875 C-63.69031788 376.76632323 -76.14473642 379.17169033 -89 381 C-89.69327393 381.1038501 -90.38654785 381.2077002 -91.10083008 381.31469727 C-120.93574649 385.25931135 -151.5619179 381.17785968 -180 372 C-181.1653125 371.64550781 -182.330625 371.29101562 -183.53125 370.92578125 C-202.69800866 364.66867193 -220.76611378 354.8635773 -237 343 C-237.86109375 342.37738281 -238.7221875 341.75476563 -239.609375 341.11328125 C-241.79535609 339.4658174 -243.90184595 337.75810839 -246 336 C-246.52013672 335.56719727 -247.04027344 335.13439453 -247.57617188 334.68847656 C-266.08958467 319.23999331 -281.48289469 301.70244833 -294 281 C-294.93779297 279.4840625 -294.93779297 279.4840625 -295.89453125 277.9375 C-309.76622848 254.73592357 -317.97018927 228.63913972 -322 202 C-322.15359985 201.0258313 -322.15359985 201.0258313 -322.31030273 200.03198242 C-329.57230502 146.24879747 -313.66455079 90.53071679 -280.99072266 47.63378906 C-275.08359259 40.02653754 -268.65126925 32.95839857 -262 26 C-261.36449219 25.32324219 -260.72898437 24.64648438 -260.07421875 23.94921875 C-255.12804299 18.81416755 -249.60806291 14.38830922 -244 10 C-243.4534375 9.57170898 -242.906875 9.14341797 -242.34375 8.70214844 C-172.96788205 -45.18240354 -73.00722743 -48.92877362 0 0 Z " fill="#183947" transform="translate(365,76)"/>
<path d="M0 0 C4.91245251 3.00205431 5.67528907 8.74129906 7 14 C13.24281291 12.84026796 19.1342722 11.47231284 25.08203125 9.20703125 C30.29190841 7.31656475 34.4748239 6.00365677 40 7 C43.37546878 9.78530153 45.67331909 12.94260534 46.3671875 17.3125 C46.375 19.5 46.375 19.5 46 23 C43.37642124 24.31178938 41.3122002 24.11097245 38.375 24.1875 C31.0310872 24.66341837 24.96799331 26.96716388 18.23828125 29.72265625 C15 31 15 31 13 31 C13.99 34.63 14.98 38.26 16 42 C18.31 42 20.62 42 23 42 C23 41.34 23 40.68 23 40 C26.465 39.505 26.465 39.505 30 39 C30 38.34 30 37.68 30 37 C31.76940734 36.39166973 33.54063316 35.7886289 35.3125 35.1875 C36.29863281 34.85105469 37.28476563 34.51460937 38.30078125 34.16796875 C46.62528017 31.53964227 54.59338574 29.49895725 63.3125 28.8125 C64.27744385 28.73354492 65.2423877 28.65458984 66.23657227 28.57324219 C96.11162118 26.39879987 126.87562837 26.7777078 154 41 C156.31982483 41.79165972 158.61909713 42.40477428 161 43 C161.185625 41.4221875 161.185625 41.4221875 161.375 39.8125 C161.91140782 36.54041229 162.63880035 33.99463924 164 31 C163.41992188 30.80664062 162.83984375 30.61328125 162.2421875 30.4140625 C157.828125 28.94270833 153.4140625 27.47135417 149 26 C149 25.34 149 24.68 149 24 C148.37955811 23.98541748 147.75911621 23.97083496 147.11987305 23.95581055 C144.30845367 23.88133412 141.49822251 23.78467436 138.6875 23.6875 C137.71103516 23.66494141 136.73457031 23.64238281 135.72851562 23.61914062 C134.79072266 23.58369141 133.85292969 23.54824219 132.88671875 23.51171875 C132.02264404 23.48553467 131.15856934 23.45935059 130.26831055 23.43237305 C127.53226935 22.91084372 126.6040578 22.25853675 125 20 C124.8125 16.3125 124.8125 16.3125 125 13 C125.66 13 126.32 13 127 13 C126.95875 12.2575 126.9175 11.515 126.875 10.75 C127.00398134 7.91241048 127.57051222 6.41226062 129 4 C133.26280713 3.6372079 136.03343056 3.8329595 139.875 5.75 C144.98336125 8.2339626 150.23117237 9.33617298 155.74145508 10.56054688 C160.96577764 11.72887739 165.96287287 13.16831741 171 15 C171.185625 13.14375 171.185625 13.14375 171.375 11.25 C171.91968459 7.01936762 172.67919621 4.36972244 175.6875 1.25 C178.93897029 -0.50755151 181.36814952 -0.40353894 185 0 C187.49660485 3.74490728 187.52514747 6.66378231 187 11 C186.29429228 13.36528411 185.48436189 15.63419905 184.55859375 17.921875 C183.87590412 20.46167138 183.89398995 21.60770514 185 24 C187.13061824 25.61549034 187.13061824 25.61549034 189.75 26.9375 C193.83330556 29.25349085 196.78828392 31.54122883 200 35 C201.54999078 36.43034237 203.113614 37.84599375 204.6875 39.25 C205.45449219 39.93578125 206.22148437 40.6215625 207.01171875 41.328125 C208.89798664 43.04622145 208.89798664 43.04622145 211 44 C211.36371923 50.42570647 211.36371923 50.42570647 209.8125 52.875 C206.25112937 55.08550591 203.7772869 55.15838708 199.68359375 54.32421875 C195.54347142 52.83588209 193.43485985 51.06445589 190.3125 48 C185.02907725 42.57782641 185.02907725 42.57782641 178 41 C177.34 44.3 176.68 47.6 176 51 C177.155 51.78375 178.31 52.5675 179.5 53.375 C181.46875 54.7109375 181.46875 54.7109375 183 56 C183 56.66 183 57.32 183 58 C183.556875 58.2475 184.11375 58.495 184.6875 58.75 C187.44160479 60.23870529 189.69174514 61.88409972 192 64 C192 64.99 192 65.98 192 67 C192.721875 67.2475 193.44375 67.495 194.1875 67.75 C197.28975304 69.12877913 199.50122551 70.70945672 202 73 C202.33 73.99 202.66 74.98 203 76 C205.45543592 77.22771796 207.75768485 77.32986427 210.4609375 77.59619141 C217.45001556 78.29478382 222.93510242 79.20943901 229 83 C229 83.99 229 84.98 229 86 C229.59683594 86.08636719 230.19367188 86.17273438 230.80859375 86.26171875 C233.61295079 87.20650214 234.38752212 88.40499847 236.0625 90.8125 C236.54847656 91.49957031 237.03445313 92.18664062 237.53515625 92.89453125 C238.01855469 93.58933594 238.50195312 94.28414063 239 95 C239.50708496 95.60191162 240.01416992 96.20382324 240.53662109 96.82397461 C242.21157809 99.31461386 242.53970154 100.95755742 242.87890625 103.921875 C242.99556641 104.86546875 243.11222656 105.8090625 243.23242188 106.78125 C243.34134766 107.7609375 243.45027344 108.740625 243.5625 109.75 C244.42416577 117.52966691 244.42416577 117.52966691 246.05078125 125.171875 C247.08390371 129.33837709 247.43523496 133.23028659 247.625 137.5 C247.66367187 138.22703125 247.70234375 138.9540625 247.7421875 139.703125 C247.83509655 141.46839688 247.9185657 143.23416157 248 145 C248.66 145 249.32 145 250 145 C250.11593506 145.64549805 250.23187012 146.29099609 250.35131836 146.95605469 C250.87865267 149.88762233 251.40805434 152.81881297 251.9375 155.75 C252.11990234 156.76578125 252.30230469 157.7815625 252.49023438 158.828125 C252.66748047 159.8078125 252.84472656 160.7875 253.02734375 161.796875 C253.27085571 163.14797363 253.27085571 163.14797363 253.51928711 164.52636719 C253.82314931 166.08996892 254.16383188 167.64725131 254.5546875 169.19140625 C255.35157798 172.42790004 255.05528793 175.68272412 255 179 C255.66 179 256.32 179 257 179 C260.57696192 197.7790501 262.14225917 210.51070675 251.1328125 227.1328125 C247.50742635 232.00650011 243.32440929 236.38528692 237.8125 239.0625 C235.82107843 239.86702161 235.82107843 239.86702161 235 242 C231.9375 242.625 231.9375 242.625 229 243 C229 243.66 229 244.32 229 245 C221.66515876 248.81197588 214.49383419 252.30753197 206.6484375 254.96484375 C203.72675822 256.10679804 201.14821599 257.54944379 198.4375 259.125 C193.40743444 261.9951815 188.72058917 263.28027295 183 264 C183 264.66 183 265.32 183 266 C168.13337543 266.86100142 168.13337543 266.86100142 163.875 263.8125 C162.328125 262.41015625 162.328125 262.41015625 161 261 C159.824375 259.88625 159.824375 259.88625 158.625 258.75 C157.75875 257.8425 156.8925 256.935 156 256 C151.12054929 250.93251651 146.31612627 246.22015937 140.53125 242.19140625 C139 241 139 241 138 239 C130.89773223 238.54288145 125.16092543 240.18739095 118.4375 242.375 C116.43631204 243.0081733 114.4350126 243.64099441 112.43359375 244.2734375 C109.41565615 245.22776873 106.40791181 246.19822083 103.40625 247.203125 C98.91990905 248.25268183 94.65704229 248.38340721 90.0625 248.375 C89.13808105 248.37338867 88.21366211 248.37177734 87.26123047 248.37011719 C78.6481845 248.21841097 71.22619792 246.4838571 63 244 C61.57341972 243.61946915 60.14497177 243.24587884 58.71484375 242.87890625 C58.01858887 242.70004883 57.32233398 242.52119141 56.60498047 242.33691406 C55.93096191 242.16385742 55.25694336 241.99080078 54.5625 241.8125 C48.12853107 240.12853107 48.12853107 240.12853107 47 239 C43.54547277 238.43599555 41.06584565 238.29087754 38.07421875 240.28125 C35.98194513 242.12614056 33.98883117 244.04407229 32 246 C30.38405412 247.4890527 28.7590943 248.96838637 27.125 250.4375 C26.38507813 251.11683594 25.64515625 251.79617188 24.8828125 252.49609375 C23 254 23 254 21 254 C21 254.66 21 255.32 21 256 C19.5390625 257.5078125 19.5390625 257.5078125 17.625 259.125 C16.68527344 259.93324219 16.68527344 259.93324219 15.7265625 260.7578125 C14 262 14 262 12 262 C12 262.66 12 263.32 12 264 C11.34 264 10.68 264 10 264 C10 264.66 10 265.32 10 266 C-2.9090452 266.68746395 -12.3327776 264.1036549 -23.68359375 258.1640625 C-27.03541356 256.47967413 -30.4667637 255.25759258 -34 254 C-35.66905395 253.33933281 -37.3369416 252.67561748 -39 252 C-39 251.34 -39 250.68 -39 250 C-40.36125 249.814375 -40.36125 249.814375 -41.75 249.625 C-45.30348373 248.94163774 -47.84097407 248.26940936 -50.3125 245.5625 C-52.86710865 243.19712162 -55.77342909 242.27845262 -59 241 C-59 240.34 -59 239.68 -59 239 C-59.825 238.855625 -60.65 238.71125 -61.5 238.5625 C-68.69424116 235.3507852 -74.85663339 227.12670121 -77.8671875 219.92578125 C-78.60778023 217.9614472 -79.30649336 215.98144755 -80 214 C-80.33 213.34 -80.66 212.68 -81 212 C-81.09572667 210.47632041 -81.13074062 208.94855728 -81.1328125 207.421875 C-81.13410156 206.50792969 -81.13539062 205.59398437 -81.13671875 204.65234375 C-81.13285156 203.69457031 -81.12898438 202.73679687 -81.125 201.75 C-81.12886719 200.80769531 -81.13273437 199.86539063 -81.13671875 198.89453125 C-81.13006548 194.15074739 -80.98602196 189.66404038 -80 185 C-79.34 185 -78.68 185 -78 185 C-77.90203125 183.71867188 -77.8040625 182.43734375 -77.703125 181.1171875 C-76.93338537 171.92580058 -75.82425096 163.46507549 -73.01171875 154.640625 C-71.56539403 149.4360897 -70.80113952 144.17543533 -70.03930664 138.83374023 C-69.37859981 134.22451184 -68.53246004 129.71825864 -67.48632812 125.1809082 C-66.73361997 121.80543533 -66.1606269 118.40628201 -65.5625 115 C-64.48940544 109.14255045 -63.26597448 103.52053587 -61 98 C-60.73703125 97.32839844 -60.4740625 96.65679687 -60.203125 95.96484375 C-56.95316291 88.56690373 -51.62032516 82.83577912 -44.1875 79.5625 C-40.45278995 78.22331494 -37.07758158 77.77302365 -33.125 77.5625 C-28.98767167 77.40082552 -28.98767167 77.40082552 -25.8125 74.875 C-24.9153125 73.451875 -24.9153125 73.451875 -24 72 C-22.78221506 70.84020482 -21.52788635 69.71822069 -20.25 68.625 C-19.56035156 68.03460938 -18.87070313 67.44421875 -18.16015625 66.8359375 C-17.44730469 66.23007813 -16.73445313 65.62421875 -16 65 C-14.56018183 63.75267089 -13.12260765 62.5027459 -11.6875 61.25 C-11.05199219 60.69828125 -10.41648437 60.1465625 -9.76171875 59.578125 C-8.63122893 58.56544676 -7.52970343 57.51890581 -6.46875 56.43359375 C-4.23225472 54.2506316 -1.61882279 52.6876858 1 51 C0.505 46.545 0.505 46.545 0 42 C-6.60173852 42.77042421 -10.87762679 43.98761538 -15.625 48.7578125 C-17 50 -17 50 -19 50 C-19.433125 51.2065625 -19.433125 51.2065625 -19.875 52.4375 C-21 55 -21 55 -23 56 C-26.50337981 56.38080215 -28.36278626 56.40245078 -31.375 54.5 C-33.17239856 51.73477145 -33.86392585 49.55607063 -33.7265625 46.234375 C-32.16094953 41.41969425 -27.87677915 38.05991032 -24 35 C-23.01 34.67 -22.02 34.34 -21 34 C-20.34 33.01 -19.68 32.02 -19 31 C-17.33270482 29.99333121 -15.66343017 28.98701852 -13.94921875 28.0625 C-11.5932979 26.77831068 -9.30081592 25.38048955 -7 24 C-7.33 19.71 -7.66 15.42 -8 11 C-8.66 11 -9.32 11 -10 11 C-10.36010591 3.67784643 -10.36010591 3.67784643 -8.9375 1 C-5.82090489 -0.60856522 -3.43737531 -0.42213381 0 0 Z " fill="#193947" transform="translate(161,111)"/>
<path d="M0 0 C4.91245251 3.00205431 5.67528907 8.74129906 7 14 C13.24281291 12.84026796 19.1342722 11.47231284 25.08203125 9.20703125 C30.29190841 7.31656475 34.4748239 6.00365677 40 7 C43.37546878 9.78530153 45.67331909 12.94260534 46.3671875 17.3125 C46.375 19.5 46.375 19.5 46 23 C43.37642124 24.31178938 41.3122002 24.11097245 38.375 24.1875 C31.0310872 24.66341837 24.96799331 26.96716388 18.23828125 29.72265625 C15 31 15 31 13 31 C13.99 34.63 14.98 38.26 16 42 C18.31 42 20.62 42 23 42 C23 41.34 23 40.68 23 40 C26.465 39.505 26.465 39.505 30 39 C30 38.34 30 37.68 30 37 C31.76940734 36.39166973 33.54063316 35.7886289 35.3125 35.1875 C36.29863281 34.85105469 37.28476563 34.51460937 38.30078125 34.16796875 C46.62528017 31.53964227 54.59338574 29.49895725 63.3125 28.8125 C64.27744385 28.73354492 65.2423877 28.65458984 66.23657227 28.57324219 C96.11162118 26.39879987 126.87562837 26.7777078 154 41 C156.31982483 41.79165972 158.61909713 42.40477428 161 43 C161.185625 41.4221875 161.185625 41.4221875 161.375 39.8125 C161.91140782 36.54041229 162.63880035 33.99463924 164 31 C163.41992188 30.80664062 162.83984375 30.61328125 162.2421875 30.4140625 C157.828125 28.94270833 153.4140625 27.47135417 149 26 C149 25.34 149 24.68 149 24 C148.37955811 23.98541748 147.75911621 23.97083496 147.11987305 23.95581055 C144.30845367 23.88133412 141.49822251 23.78467436 138.6875 23.6875 C137.71103516 23.66494141 136.73457031 23.64238281 135.72851562 23.61914062 C134.79072266 23.58369141 133.85292969 23.54824219 132.88671875 23.51171875 C132.02264404 23.48553467 131.15856934 23.45935059 130.26831055 23.43237305 C127.53226935 22.91084372 126.6040578 22.25853675 125 20 C124.8125 16.3125 124.8125 16.3125 125 13 C125.66 13 126.32 13 127 13 C126.95875 12.2575 126.9175 11.515 126.875 10.75 C127.00398134 7.91241048 127.57051222 6.41226062 129 4 C133.26280713 3.6372079 136.03343056 3.8329595 139.875 5.75 C144.98336125 8.2339626 150.23117237 9.33617298 155.74145508 10.56054688 C160.96577764 11.72887739 165.96287287 13.16831741 171 15 C171.185625 13.14375 171.185625 13.14375 171.375 11.25 C171.91968459 7.01936762 172.67919621 4.36972244 175.6875 1.25 C178.93897029 -0.50755151 181.36814952 -0.40353894 185 0 C187.49660485 3.74490728 187.52514747 6.66378231 187 11 C186.29429228 13.36528411 185.48436189 15.63419905 184.55859375 17.921875 C183.87590412 20.46167138 183.89398995 21.60770514 185 24 C187.13061824 25.61549034 187.13061824 25.61549034 189.75 26.9375 C193.83330556 29.25349085 196.78828392 31.54122883 200 35 C201.54999078 36.43034237 203.113614 37.84599375 204.6875 39.25 C205.45449219 39.93578125 206.22148437 40.6215625 207.01171875 41.328125 C208.89798664 43.04622145 208.89798664 43.04622145 211 44 C211.36371923 50.42570647 211.36371923 50.42570647 209.8125 52.875 C206.25112937 55.08550591 203.7772869 55.15838708 199.68359375 54.32421875 C195.54347142 52.83588209 193.43485985 51.06445589 190.3125 48 C185.02907725 42.57782641 185.02907725 42.57782641 178 41 C177.34 44.3 176.68 47.6 176 51 C177.155 51.78375 178.31 52.5675 179.5 53.375 C181.46875 54.7109375 181.46875 54.7109375 183 56 C183 56.66 183 57.32 183 58 C183.556875 58.2475 184.11375 58.495 184.6875 58.75 C187.44160479 60.23870529 189.69174514 61.88409972 192 64 C192 64.99 192 65.98 192 67 C192.721875 67.2475 193.44375 67.495 194.1875 67.75 C197.28975304 69.12877913 199.50122551 70.70945672 202 73 C202.33 73.99 202.66 74.98 203 76 C205.45543592 77.22771796 207.75768485 77.32986427 210.4609375 77.59619141 C217.45001556 78.29478382 222.93510242 79.20943901 229 83 C229 83.99 229 84.98 229 86 C229.59683594 86.08636719 230.19367188 86.17273438 230.80859375 86.26171875 C233.61295079 87.20650214 234.38752212 88.40499847 236.0625 90.8125 C236.54847656 91.49957031 237.03445313 92.18664062 237.53515625 92.89453125 C238.01855469 93.58933594 238.50195312 94.28414063 239 95 C239.50708496 95.60191162 240.01416992 96.20382324 240.53662109 96.82397461 C242.21157809 99.31461386 242.53970154 100.95755742 242.87890625 103.921875 C242.99556641 104.86546875 243.11222656 105.8090625 243.23242188 106.78125 C243.34134766 107.7609375 243.45027344 108.740625 243.5625 109.75 C244.42416577 117.52966691 244.42416577 117.52966691 246.05078125 125.171875 C247.08390371 129.33837709 247.43523496 133.23028659 247.625 137.5 C247.66367187 138.22703125 247.70234375 138.9540625 247.7421875 139.703125 C247.83509655 141.46839688 247.9185657 143.23416157 248 145 C248.66 145 249.32 145 250 145 C250.11593506 145.64549805 250.23187012 146.29099609 250.35131836 146.95605469 C250.87865267 149.88762233 251.40805434 152.81881297 251.9375 155.75 C252.11990234 156.76578125 252.30230469 157.7815625 252.49023438 158.828125 C252.66748047 159.8078125 252.84472656 160.7875 253.02734375 161.796875 C253.27085571 163.14797363 253.27085571 163.14797363 253.51928711 164.52636719 C253.82314931 166.08996892 254.16383188 167.64725131 254.5546875 169.19140625 C255.35157798 172.42790004 255.05528793 175.68272412 255 179 C255.66 179 256.32 179 257 179 C260.57696192 197.7790501 262.14225917 210.51070675 251.1328125 227.1328125 C247.50742635 232.00650011 243.32440929 236.38528692 237.8125 239.0625 C235.82107843 239.86702161 235.82107843 239.86702161 235 242 C231.9375 242.625 231.9375 242.625 229 243 C229 243.66 229 244.32 229 245 C221.66515876 248.81197588 214.49383419 252.30753197 206.6484375 254.96484375 C203.72675822 256.10679804 201.14821599 257.54944379 198.4375 259.125 C193.40743444 261.9951815 188.72058917 263.28027295 183 264 C183 264.66 183 265.32 183 266 C168.13337543 266.86100142 168.13337543 266.86100142 163.875 263.8125 C162.328125 262.41015625 162.328125 262.41015625 161 261 C159.824375 259.88625 159.824375 259.88625 158.625 258.75 C157.75875 257.8425 156.8925 256.935 156 256 C151.12054929 250.93251651 146.31612627 246.22015937 140.53125 242.19140625 C139 241 139 241 138 239 C130.89773223 238.54288145 125.16092543 240.18739095 118.4375 242.375 C116.43631204 243.0081733 114.4350126 243.64099441 112.43359375 244.2734375 C109.41565615 245.22776873 106.40791181 246.19822083 103.40625 247.203125 C98.91990905 248.25268183 94.65704229 248.38340721 90.0625 248.375 C89.13808105 248.37338867 88.21366211 248.37177734 87.26123047 248.37011719 C78.6481845 248.21841097 71.22619792 246.4838571 63 244 C61.57341972 243.61946915 60.14497177 243.24587884 58.71484375 242.87890625 C58.01858887 242.70004883 57.32233398 242.52119141 56.60498047 242.33691406 C55.93096191 242.16385742 55.25694336 241.99080078 54.5625 241.8125 C48.12853107 240.12853107 48.12853107 240.12853107 47 239 C43.54547277 238.43599555 41.06584565 238.29087754 38.07421875 240.28125 C35.98194513 242.12614056 33.98883117 244.04407229 32 246 C30.38405412 247.4890527 28.7590943 248.96838637 27.125 250.4375 C26.38507813 251.11683594 25.64515625 251.79617188 24.8828125 252.49609375 C23 254 23 254 21 254 C21 254.66 21 255.32 21 256 C19.5390625 257.5078125 19.5390625 257.5078125 17.625 259.125 C16.68527344 259.93324219 16.68527344 259.93324219 15.7265625 260.7578125 C14 262 14 262 12 262 C12 262.66 12 263.32 12 264 C11.34 264 10.68 264 10 264 C10 264.66 10 265.32 10 266 C-2.9090452 266.68746395 -12.3327776 264.1036549 -23.68359375 258.1640625 C-27.03541356 256.47967413 -30.4667637 255.25759258 -34 254 C-35.66905395 253.33933281 -37.3369416 252.67561748 -39 252 C-39 251.34 -39 250.68 -39 250 C-40.36125 249.814375 -40.36125 249.814375 -41.75 249.625 C-45.30348373 248.94163774 -47.84097407 248.26940936 -50.3125 245.5625 C-52.86710865 243.19712162 -55.77342909 242.27845262 -59 241 C-59 240.34 -59 239.68 -59 239 C-59.825 238.855625 -60.65 238.71125 -61.5 238.5625 C-68.69424116 235.3507852 -74.85663339 227.12670121 -77.8671875 219.92578125 C-78.60778023 217.9614472 -79.30649336 215.98144755 -80 214 C-80.33 213.34 -80.66 212.68 -81 212 C-81.09572667 210.47632041 -81.13074062 208.94855728 -81.1328125 207.421875 C-81.13410156 206.50792969 -81.13539062 205.59398437 -81.13671875 204.65234375 C-81.13285156 203.69457031 -81.12898438 202.73679687 -81.125 201.75 C-81.12886719 200.80769531 -81.13273437 199.86539063 -81.13671875 198.89453125 C-81.13006548 194.15074739 -80.98602196 189.66404038 -80 185 C-79.34 185 -78.68 185 -78 185 C-77.90203125 183.71867188 -77.8040625 182.43734375 -77.703125 181.1171875 C-76.93338537 171.92580058 -75.82425096 163.46507549 -73.01171875 154.640625 C-71.56539403 149.4360897 -70.80113952 144.17543533 -70.03930664 138.83374023 C-69.37859981 134.22451184 -68.53246004 129.71825864 -67.48632812 125.1809082 C-66.73361997 121.80543533 -66.1606269 118.40628201 -65.5625 115 C-64.48940544 109.14255045 -63.26597448 103.52053587 -61 98 C-60.73703125 97.32839844 -60.4740625 96.65679687 -60.203125 95.96484375 C-56.95316291 88.56690373 -51.62032516 82.83577912 -44.1875 79.5625 C-40.45278995 78.22331494 -37.07758158 77.77302365 -33.125 77.5625 C-28.98767167 77.40082552 -28.98767167 77.40082552 -25.8125 74.875 C-24.9153125 73.451875 -24.9153125 73.451875 -24 72 C-22.78221506 70.84020482 -21.52788635 69.71822069 -20.25 68.625 C-19.56035156 68.03460938 -18.87070313 67.44421875 -18.16015625 66.8359375 C-17.44730469 66.23007813 -16.73445313 65.62421875 -16 65 C-14.56018183 63.75267089 -13.12260765 62.5027459 -11.6875 61.25 C-11.05199219 60.69828125 -10.41648437 60.1465625 -9.76171875 59.578125 C-8.63122893 58.56544676 -7.52970343 57.51890581 -6.46875 56.43359375 C-4.23225472 54.2506316 -1.61882279 52.6876858 1 51 C0.505 46.545 0.505 46.545 0 42 C-6.60173852 42.77042421 -10.87762679 43.98761538 -15.625 48.7578125 C-17 50 -17 50 -19 50 C-19.433125 51.2065625 -19.433125 51.2065625 -19.875 52.4375 C-21 55 -21 55 -23 56 C-26.50337981 56.38080215 -28.36278626 56.40245078 -31.375 54.5 C-33.17239856 51.73477145 -33.86392585 49.55607063 -33.7265625 46.234375 C-32.16094953 41.41969425 -27.87677915 38.05991032 -24 35 C-23.01 34.67 -22.02 34.34 -21 34 C-20.34 33.01 -19.68 32.02 -19 31 C-17.33270482 29.99333121 -15.66343017 28.98701852 -13.94921875 28.0625 C-11.5932979 26.77831068 -9.30081592 25.38048955 -7 24 C-7.33 19.71 -7.66 15.42 -8 11 C-8.66 11 -9.32 11 -10 11 C-10.36010591 3.67784643 -10.36010591 3.67784643 -8.9375 1 C-5.82090489 -0.60856522 -3.43737531 -0.42213381 0 0 Z M57.3125 45.375 C53.07208584 47.45520317 48.82439005 48.2834321 44.21875 49.25390625 C41.06124088 49.9858046 38.05663873 50.92741442 35 52 C35 52.66 35 53.32 35 54 C34.07767578 54.07347656 34.07767578 54.07347656 33.13671875 54.1484375 C32.32847656 54.22320312 31.52023438 54.29796875 30.6875 54.375 C29.88699219 54.44460937 29.08648437 54.51421875 28.26171875 54.5859375 C25.72775559 54.89564426 25.72775559 54.89564426 23 57 C23 57.66 23 58.32 23 59 C22.071875 59.185625 21.14375 59.37125 20.1875 59.5625 C10.1198194 62.47949398 1.84125307 70.3923397 -6 77 C-6.86753906 77.66515625 -7.73507813 78.3303125 -8.62890625 79.015625 C-10.88507621 80.90381996 -12.39795668 82.65609893 -14.0625 85.0625 C-16.52446569 88.61564162 -18.57916161 91.49355955 -23.00610352 92.41967773 C-25.41866155 92.74258662 -27.82476526 92.9809761 -30.25 93.1875 C-31.09046875 93.26935547 -31.9309375 93.35121094 -32.796875 93.43554688 C-34.86350783 93.63516482 -36.93164248 93.81912511 -39 94 C-39.33 94.99 -39.66 95.98 -40 97 C-40.78375 97.226875 -41.5675 97.45375 -42.375 97.6875 C-45.70587445 99.35293723 -46.11315646 101.1309547 -47.29931641 104.54125977 C-48.61612131 109.16200616 -49.28555694 113.88047068 -50 118.625 C-50.34273136 120.78422381 -50.6877678 122.94308305 -51.03515625 125.1015625 C-51.20031738 126.12926758 -51.36547852 127.15697266 -51.53564453 128.21582031 C-52.2624576 132.57364166 -53.18355702 136.87519819 -54.15625 141.18359375 C-54.85813948 144.35834383 -55.51696182 147.53497978 -56.15625 150.72265625 C-59.83224933 168.96061273 -59.83224933 168.96061273 -62.1875 176 C-66.00280596 187.58493713 -68.9607016 203.81271369 -63.98046875 215.29296875 C-62.40996431 218.0272733 -60.35244593 219.92760716 -58 222 C-57.21625 222.825 -56.4325 223.65 -55.625 224.5 C-51.17671449 228.73646239 -46.78250038 231.86960512 -41 234 C-39.33333333 235 -37.66666667 236 -36 237 C-29.15245291 240.54473636 -22.63830753 242.88987721 -15 244 C-15 244.66 -15 245.32 -15 246 C-8.6078339 249.04647916 -2.10813662 251.97089243 5 250 C9.06229637 247.40215025 12.47959494 244.27891386 16 241 C17.3918759 239.89084889 18.7870653 238.7858248 20.1875 237.6875 C21.115625 236.800625 22.04375 235.91375 23 235 C23 233.68 23 232.36 23 231 C22.24976563 230.82984375 21.49953125 230.6596875 20.7265625 230.484375 C14.72718041 229.06386639 9.11820601 227.3765376 3.4453125 224.96875 C0.90940383 223.96410887 -1.62082831 223.22204118 -4.25 222.5 C-8.44544125 221.24269111 -11.83167041 220.16832959 -15 217 C-15.93835441 212.29969748 -15.66649616 208.99974423 -13 205 C-9.875 204.3125 -9.875 204.3125 -7 204 C-7 204.66 -7 205.32 -7 206 C-5.865625 206.268125 -4.73125 206.53625 -3.5625 206.8125 C0.1733031 207.74645078 3.78910474 208.89506295 7.4296875 210.14453125 C11.61720572 211.53824932 15.85216737 212.77680965 20.08203125 214.03515625 C23 215 23 215 25.13671875 216.0703125 C27.12717524 217.06345431 28.81398287 217.43574326 31 217.8125 C36.01413224 218.8450643 40.46220573 220.80633633 45.14453125 222.8359375 C47.52849364 223.80778537 49.75075166 224.54560648 52.25 225.125 C55.64760414 225.9177743 58.68718303 226.95358557 61.92578125 228.20703125 C64.14587249 229.0557667 66.37703742 229.85308655 68.625 230.625 C69.31851563 230.86476563 70.01203125 231.10453125 70.7265625 231.3515625 C76.99370724 233.13909863 83.09908019 233.15191223 89.5625 233.125 C90.49513672 233.12886719 91.42777344 233.13273438 92.38867188 233.13671875 C93.29294922 233.13542969 94.19722656 233.13414062 95.12890625 233.1328125 C95.94431885 233.13168457 96.75973145 233.13055664 97.59985352 233.12939453 C100.14581827 232.99213878 102.51474209 232.55657839 105 232 C105 231.34 105 230.68 105 230 C106.0725 229.9175 107.145 229.835 108.25 229.75 C111.79807644 229.302387 114.98105289 228.43326535 118.36328125 227.27734375 C119.41757324 226.91850098 120.47186523 226.5596582 121.55810547 226.18994141 C128.33931214 223.84552367 135.11995317 221.49939366 141.8918457 219.12817383 C143.79013653 218.46397447 145.68997208 217.80419518 147.58984375 217.14453125 C148.70222412 216.75628174 149.81460449 216.36803223 150.96069336 215.96801758 C153.63930931 215.1148798 156.23393649 214.48218737 159 214 C159 213.34 159 212.68 159 212 C160.7325 211.83177734 160.7325 211.83177734 162.5 211.66015625 C167.58571015 211.0255617 172.1887453 209.43406783 177 207.72851562 C181.84871354 206.10438599 185.87731951 205.60807078 191 206 C193 208 193 208 193.1953125 210.3828125 C193.16050781 211.74019531 193.16050781 211.74019531 193.125 213.125 C193.10695313 214.03507813 193.08890625 214.94515625 193.0703125 215.8828125 C193.03550781 216.93082031 193.03550781 216.93082031 193 218 C192.29875 218.17015625 191.5975 218.3403125 190.875 218.515625 C185.51198872 219.88552462 180.79020687 221.45342859 175.92578125 224.08203125 C172.73291423 225.60398612 169.44915858 226.26089459 166 227 C166 227.66 166 228.32 166 229 C164.4221875 229.2165625 164.4221875 229.2165625 162.8125 229.4375 C159.84539451 229.87526966 156.93205634 230.37804866 154 231 C154.26088269 234.52191627 155.24314592 235.21275268 158 237.625 C158.99 238.40875 159.98 239.1925 161 240 C161.33 240.66 161.66 241.32 162 242 C162.721875 242.433125 163.44375 242.86625 164.1875 243.3125 C167 245 167 245 169.875 247.6875 C173.7916162 250.58579599 175.20619434 250.7072828 180 250 C183.75939946 248.88169763 187.36917648 247.47904769 191 246 C192.03253906 245.57976562 193.06507813 245.15953125 194.12890625 244.7265625 C197.09372514 243.50204406 200.04791641 242.25484821 203 241 C204.19625 240.505 205.3925 240.01 206.625 239.5 C228.26631791 230.2137085 228.26631791 230.2137085 243 213 C245.37747234 203.20525221 243.69268126 193.1833084 242.1875 183.375 C242.02185547 182.21226562 241.85621094 181.04953125 241.68554688 179.8515625 C240.81242736 174.02637267 239.69449988 168.63183468 237.68920898 163.09619141 C236.4989734 159.476155 235.9913106 155.76080746 235.4375 152 C235.18932281 150.41247439 234.93934702 148.82522881 234.6875 147.23828125 C234.51154297 146.12573975 234.51154297 146.12573975 234.33203125 144.99072266 C233.95009339 142.70078049 233.47385996 140.44607825 232.9375 138.1875 C231.8426778 133.57296014 231.20018092 128.90277378 230.5 124.21484375 C228.27246873 109.8908452 228.27246873 109.8908452 222 97 C219.91466367 96.12177688 219.91466367 96.12177688 218 96 C217.67 95.34 217.34 94.68 217 94 C215.1102406 93.68103355 215.1102406 93.68103355 212.84375 93.68359375 C196.6928645 92.98555604 196.6928645 92.98555604 191.6875 87.875 C190.41249319 86.28571295 189.1805155 84.66068023 188 83 C186.8069813 81.57041256 185.59924087 80.15294269 184.375 78.75 C183.54548828 77.78320312 183.54548828 77.78320312 182.69921875 76.796875 C180.06332001 74.00948782 177.24771218 72.03778019 174 70 C173.34 70 172.68 70 172 70 C172 69.34 172 68.68 172 68 C170.88625 67.566875 169.7725 67.13375 168.625 66.6875 C165 65 165 65 163 62 C162.34 62 161.68 62 161 62 C161 61.34 161 60.68 161 60 C154.64045603 57.51652173 154.64045603 57.51652173 148 56 C148 55.34 148 54.68 148 54 C136.06717321 50.33212291 124.14330101 46.90189179 112 44 C111.03510651 43.73293747 111.03510651 43.73293747 110.05072021 43.46047974 C107.96425602 42.99197385 106.13629273 42.87311268 104.00097656 42.87060547 C102.83891693 42.86587723 102.83891693 42.86587723 101.65338135 42.86105347 C100.82417175 42.8630777 99.99496216 42.86510193 99.140625 42.8671875 C98.27741638 42.86623077 97.41420776 42.86527405 96.52484131 42.86428833 C94.69917732 42.86360851 92.87351089 42.86544899 91.04785156 42.86962891 C88.27403219 42.87495386 85.50037667 42.8696907 82.7265625 42.86328125 C80.94791631 42.86394258 79.16927023 42.86522486 77.390625 42.8671875 C76.56951233 42.86516327 75.74839966 42.86313904 74.90240479 42.86105347 C65.82635408 42.76235361 65.82635408 42.76235361 57.3125 45.375 Z " fill="#F5F7F4" transform="translate(161,111)"/>
<path d="M0 0 C0 0.66 0 1.32 0 2 C0.5775 2.103125 1.155 2.20625 1.75 2.3125 C4.35661158 3.10896465 5.9735311 4.19065277 8 6 C8 6.66 8 7.32 8 8 C8.66 8 9.32 8 10 8 C10 8.66 10 9.32 10 10 C10.66 10 11.32 10 12 10 C12.82011312 11.55851755 13.63076213 13.12201716 14.4375 14.6875 C14.88996094 15.55761719 15.34242188 16.42773438 15.80859375 17.32421875 C19.38711373 25.36122264 19.30179995 36.60393805 17.24609375 45.125 C16.30905994 47.5355654 15.26362093 49.74573549 14 52 C13.443125 53.051875 12.88625 54.10375 12.3125 55.1875 C6.79050274 61.90344261 -0.0052244 65.85617704 -8 69 C-8.99 69.495 -8.99 69.495 -10 70 C-20.07435035 70.83259094 -28.1703513 70.43917902 -37 65 C-37.72703125 64.56558594 -38.4540625 64.13117188 -39.203125 63.68359375 C-46.47042363 58.81561318 -51.72144096 51.76904215 -53.65576172 43.19873047 C-54.26630413 39.29905322 -54.20835629 35.43698178 -54.125 31.5 C-54.11597656 30.67757812 -54.10695313 29.85515625 -54.09765625 29.0078125 C-54.07436865 27.00507917 -54.03850959 25.00249846 -54 23 C-53.34 23 -52.68 23 -52 23 C-51.979375 21.865625 -51.95875 20.73125 -51.9375 19.5625 C-51.08674129 12.97786068 -46.84798119 8.41435999 -41.921875 4.23828125 C-28.7006891 -5.20202595 -14.80209 -6.64462557 0 0 Z " fill="#F5F7F4" transform="translate(317,233)"/>
<path d="M0 0 C1.15242188 0.00902344 2.30484375 0.01804688 3.4921875 0.02734375 C4.36101562 0.03894531 5.22984375 0.05054688 6.125 0.0625 C6.125 0.7225 6.125 1.3825 6.125 2.0625 C7.3625 1.9078125 7.3625 1.9078125 8.625 1.75 C13.44441012 2.18030447 16.24119591 4.32363238 20.125 7.0625 C20.78371094 7.49304688 21.44242188 7.92359375 22.12109375 8.3671875 C25.47940536 10.61537116 27.57763724 12.32304001 29.125 16.0625 C30.115 16.7225 31.105 17.3825 32.125 18.0625 C35.91066812 27.76814295 35.92395393 37.94338414 34.125 48.0625 C33.465 48.0625 32.805 48.0625 32.125 48.0625 C32.3415625 49.5165625 32.3415625 49.5165625 32.5625 51 C32.57217156 55.74873799 30.01588417 58.59426492 27.078125 62.1171875 C24.69357955 64.49219476 22.20114196 65.74415345 19.125 67.0625 C18.63 68.5475 18.63 68.5475 18.125 70.0625 C16.27734375 70.79296875 16.27734375 70.79296875 14.0625 71.25 C13.32902344 71.40855469 12.59554687 71.56710937 11.83984375 71.73046875 C11.27394531 71.84003906 10.70804688 71.94960938 10.125 72.0625 C10.125 72.7225 10.125 73.3825 10.125 74.0625 C7.12443916 74.14416849 4.1261461 74.20331551 1.125 74.25 C0.28582031 74.27513672 -0.55335938 74.30027344 -1.41796875 74.32617188 C-7.27902129 74.39432365 -11.50666106 73.42978835 -16.875 71.0625 C-16.875 70.4025 -16.875 69.7425 -16.875 69.0625 C-17.844375 68.959375 -18.81375 68.85625 -19.8125 68.75 C-26.75768632 66.74549501 -31.02502535 59.41125091 -34.3359375 53.41796875 C-38.95230447 42.49911496 -37.87300127 31.02598252 -33.75 20.16015625 C-33.46125 19.46792969 -33.1725 18.77570313 -32.875 18.0625 C-32.215 18.0625 -31.555 18.0625 -30.875 18.0625 C-30.875 16.7425 -30.875 15.4225 -30.875 14.0625 C-30.215 14.0625 -29.555 14.0625 -28.875 14.0625 C-28.875 13.4025 -28.875 12.7425 -28.875 12.0625 C-27.1953125 10.5546875 -27.1953125 10.5546875 -25 8.9375 C-24.28070313 8.39867187 -23.56140625 7.85984375 -22.8203125 7.3046875 C-20.875 6.0625 -20.875 6.0625 -18.875 6.0625 C-18.875 5.4025 -18.875 4.7425 -18.875 4.0625 C-12.52338132 0.58423263 -7.17994772 -0.07326477 0 0 Z " fill="#F4F6F3" transform="translate(202.875,228.9375)"/>
<path d="M0 0 C1.0725 0.66 2.145 1.32 3.25 2 C6 4 6 4 8 7 C8 7.99 8 8.98 8 10 C8.66 10 9.32 10 10 10 C12.11905903 16.35717708 11.70815946 22.24663295 8.875 28.3125 C6.4990277 32.61091143 4.07812498 35.28125001 0 38 C-0.66 38 -1.32 38 -2 38 C-2 38.66 -2 39.32 -2 40 C-7.06410333 41.68803444 -12.94454572 42.01078355 -18.06640625 40.31640625 C-24.25108861 36.98193545 -29.72790594 31.69005473 -32 25 C-32.89536467 16.79249051 -31.76490305 10.38160993 -26.625 3.75 C-19.37716673 -3.84296819 -9.05630328 -5.63503315 0 0 Z " fill="#1D3C49" transform="translate(310,247)"/>
<path d="M0 0 C4.9637082 2.89997171 7.39198567 6.18612125 8.90234375 11.7890625 C10.13824023 18.78070543 9.52589367 25.47873761 5.52734375 31.4765625 C1.49368004 35.74012414 -2.78758881 38.81024963 -8.47265625 40.4765625 C-14.25752685 40.63096296 -19.41118619 39.29930542 -24.47265625 36.4765625 C-29.40634021 31.54287854 -32.53784953 26.21306974 -32.91015625 19.1640625 C-32.73043175 13.94306578 -31.13716465 8.96790776 -28.47265625 4.4765625 C-27.48265625 4.1465625 -26.49265625 3.8165625 -25.47265625 3.4765625 C-25.47265625 2.8165625 -25.47265625 2.1565625 -25.47265625 1.4765625 C-24.81265625 1.4765625 -24.15265625 1.4765625 -23.47265625 1.4765625 C-23.47265625 0.8165625 -23.47265625 0.1565625 -23.47265625 -0.5234375 C-14.52797176 -4.28962044 -8.83706763 -4.33973966 0 0 Z " fill="#1A3A48" transform="translate(213.47265625,247.5234375)"/>
<path d="M0 0 C0.84331879 -0.00570007 1.68663757 -0.01140015 2.55551147 -0.01727295 C4.33207976 -0.02666551 6.10866502 -0.03323389 7.88525391 -0.03710938 C10.55793886 -0.04677376 13.22983992 -0.07783522 15.90234375 -0.109375 C26.02297727 -0.1700325 35.14441634 0.4941329 44.9609375 3.203125 C44.9609375 3.533125 44.9609375 3.863125 44.9609375 4.203125 C40.6030094 5.19356321 37.41799056 5.18478669 33.05078125 4.23828125 C24.4643888 2.72941923 15.85491942 2.94018639 7.16625977 2.99731445 C4.24161254 3.01582644 1.31727843 3.01782191 -1.60742188 3.01757812 C-3.46354443 3.02248514 -5.31966484 3.02830986 -7.17578125 3.03515625 C-8.05167404 3.03626907 -8.92756683 3.0373819 -9.83000183 3.03852844 C-13.74904134 2.68135351 -13.74904134 2.68135351 -17.0390625 4.203125 C-18.70523365 4.24376332 -20.37294345 4.245846 -22.0390625 4.203125 C-21.3996875 3.89375 -20.7603125 3.584375 -20.1015625 3.265625 C-18.10295429 2.3686087 -18.10295429 2.3686087 -17.0390625 1.203125 C-11.33988753 0.30723347 -5.76177257 0.03100611 0 0 Z " fill="#637477" transform="translate(238.0390625,153.796875)"/>
<path d="M0 0 C3.4723842 1.1574614 4.37441396 2.42121237 6.08984375 5.578125 C7.67154176 9.78693515 8.03431097 14.16868578 8.55859375 18.61328125 C8.92155075 21.39809293 9.42463591 23.93224134 10.1875 26.625 C10.97515638 29.89680343 10.94071739 30.94433641 10 34 C8.5216774 31.04335481 8.93967217 28.25770263 9 25 C8.34 25 7.68 25 7 25 C6.63355422 23.44033408 6.28239138 21.87707349 5.9375 20.3125 C5.74027344 19.44238281 5.54304688 18.57226562 5.33984375 17.67578125 C4.97967721 14.83998724 5.29090031 12.75210018 6 10 C5.01 10.33 4.02 10.66 3 11 C2.86722656 10.37351563 2.73445313 9.74703125 2.59765625 9.1015625 C2.42105469 8.28429687 2.24445313 7.46703125 2.0625 6.625 C1.80146484 5.40683594 1.80146484 5.40683594 1.53515625 4.1640625 C1.07669307 1.970537 1.07669307 1.970537 0 0 Z " fill="#465B61" transform="translate(381,208)"/>
<path d="M0 0 C0.66 0.33 1.32 0.66 2 1 C1.3503125 1.5878125 1.3503125 1.5878125 0.6875 2.1875 C-1.11171387 3.98966473 -1.11171387 3.98966473 -2.4375 6.4375 C-4.82043585 10.34551479 -7.5890996 13.48375299 -12 15 C-14.25 14.625 -14.25 14.625 -16 14 C-15.01 13.67 -14.02 13.34 -13 13 C-13 12.34 -13 11.68 -13 11 C-11.25998065 9.44038399 -9.45696803 7.95050425 -7.625 6.5 C-3.68517459 3.39240862 -3.68517459 3.39240862 0 0 Z " fill="#516269" transform="translate(195,354)"/>
<path d="M0 0 C1.13583456 3.71727674 0.66670026 5.47051709 -1 9 C-0.34 9 0.32 9 1 9 C-0.49041773 12.79379058 -2.69062512 14.68343758 -6 17 C-6.66 17 -7.32 17 -8 17 C-6.3341708 10.83643195 -3.12194714 5.51740344 0 0 Z " fill="#2B4550" transform="translate(70,144)"/>
<path d="M0 0 C-4.19572352 3.05654046 -7.17892276 3.33143207 -12.3125 3.1875 C-13.56675781 3.16042969 -14.82101563 3.13335937 -16.11328125 3.10546875 C-17.54220703 3.05326172 -17.54220703 3.05326172 -19 3 C-19.33 4.32 -19.66 5.64 -20 7 C-21.65 7.33 -23.3 7.66 -25 8 C-25 9.32 -25 10.64 -25 12 C-25.66 12 -26.32 12 -27 12 C-26.8125 9.125 -26.8125 9.125 -26 6 C-23.5 4.8125 -23.5 4.8125 -21 4 C-20.67 3.01 -20.34 2.02 -20 1 C-17.04239121 0.63851448 -14.08419774 0.28550884 -11.125 -0.0625 C-9.86236328 -0.2181543 -9.86236328 -0.2181543 -8.57421875 -0.37695312 C-7.36572266 -0.51713867 -7.36572266 -0.51713867 -6.1328125 -0.66015625 C-5.38918457 -0.74918213 -4.64555664 -0.83820801 -3.87939453 -0.92993164 C-2 -1 -2 -1 0 0 Z " fill="#56696D" transform="translate(142,204)"/>
<path d="M0 0 C0.66 0.33 1.32 0.66 2 1 C-0.39731299 3.37458753 -2.82065968 5.7207237 -5.25 8.0625 C-6.27287109 9.07666992 -6.27287109 9.07666992 -7.31640625 10.11132812 C-7.98027344 10.74619141 -8.64414063 11.38105469 -9.328125 12.03515625 C-10.23933105 12.92279663 -10.23933105 12.92279663 -11.16894531 13.82836914 C-13 15 -13 15 -15.22949219 14.68530273 C-15.81375977 14.45915283 -16.39802734 14.23300293 -17 14 C-15.90220176 12.84806377 -14.79650554 11.70365063 -13.6875 10.5625 C-13.07261719 9.92441406 -12.45773438 9.28632813 -11.82421875 8.62890625 C-10 7 -10 7 -7 6 C-6.34 5.01 -5.68 4.02 -5 3 C-2.5 1.25 -2.5 1.25 0 0 Z " fill="#C9D2D3" transform="translate(147,139)"/>
<path d="M0 0 C0 0.66 0 1.32 0 2 C-0.99 2 -1.98 2 -3 2 C-3 2.66 -3 3.32 -3 4 C-2.34 4 -1.68 4 -1 4 C-0.67 5.65 -0.34 7.3 0 9 C6.435 8.505 6.435 8.505 13 8 C10 10 10 10 6 10 C6 10.66 6 11.32 6 12 C3.69 12.33 1.38 12.66 -1 13 C-1.50833591 11.75336669 -2.00631145 10.50250613 -2.5 9.25 C-2.7784375 8.55390625 -3.056875 7.8578125 -3.34375 7.140625 C-4 5 -4 5 -4 1 C-2 0 -2 0 0 0 Z " fill="#5C6B70" transform="translate(178,141)"/>
<path d="M0 0 C2.64 0.66 5.28 1.32 8 2 C8 3.32 8 4.64 8 6 C5 8.25 5 8.25 2 10 C0.41727399 8.41727399 0.65264253 6.61965997 0.4375 4.4375 C0.35371094 3.61121094 0.26992187 2.78492188 0.18359375 1.93359375 C0.12300781 1.29550781 0.06242188 0.65742188 0 0 Z " fill="#324950" transform="translate(176,340)"/>
<path d="M0 0 C1.27739101 2.55478201 0.88495926 3.7670575 0.44140625 6.5703125 C0.30283203 7.46621094 0.16425781 8.36210937 0.02148438 9.28515625 C-0.12998047 10.22230469 -0.28144531 11.15945313 -0.4375 12.125 C-0.58509766 13.06988281 -0.73269531 14.01476562 -0.88476562 14.98828125 C-1.25084635 17.32647427 -1.62282086 19.66357596 -2 22 C-2.66 22 -3.32 22 -4 22 C-4 23.98 -4 25.96 -4 28 C-4.33 28 -4.66 28 -5 28 C-5 25.36 -5 22.72 -5 20 C-4.34 20 -3.68 20 -3 20 C-3 15.38 -3 10.76 -3 6 C-2.34 6 -1.68 6 -1 6 C-1.020625 5.195625 -1.04125 4.39125 -1.0625 3.5625 C-1 1 -1 1 0 0 Z " fill="#47585F" transform="translate(85,274)"/>
<path d="M0 0 C0.33 0.99 0.66 1.98 1 3 C0.34 3 -0.32 3 -1 3 C-1 2.34 -1 1.68 -1 1 C-1.763125 0.87625 -2.52625 0.7525 -3.3125 0.625 C-6 0 -6 0 -9 -2 C-11.60245498 -2.14221065 -14.09117684 -2.18802932 -16.6875 -2.125 C-17.38939453 -2.11597656 -18.09128906 -2.10695312 -18.81445312 -2.09765625 C-20.54311525 -2.07413704 -22.27160145 -2.03826713 -24 -2 C-17.35565112 -8.64434888 -6.87278458 -4.22117392 0 0 Z " fill="#526266" transform="translate(216,249)"/>
<path d="M0 0 C2 1 2 1 3.1484375 4.4375 C4.27083977 9.35761955 4.00890489 14.00155832 3.625 19 C3.56828125 19.87011719 3.5115625 20.74023438 3.453125 21.63671875 C3.3132223 23.75857631 3.15818789 25.87942723 3 28 C2.34 27.67 1.68 27.34 1 27 C1.01740234 25.33710938 1.01740234 25.33710938 1.03515625 23.640625 C1.04453792 22.17708502 1.05363771 20.71354322 1.0625 19.25 C1.07087891 18.52039063 1.07925781 17.79078125 1.08789062 17.0390625 C1.13397041 12.98064119 1.13397041 12.98064119 0.49780273 8.99121094 C-0.24988838 6.0004465 -0.05896622 3.06624353 0 0 Z " fill="#334850" transform="translate(419,297)"/>
<path d="M0 0 C-0.969375 0.61875 -1.93875 1.2375 -2.9375 1.875 C-6.02835362 3.65678846 -6.02835362 3.65678846 -7 6 C-10.47325181 7.1577506 -13.36067448 7.06866652 -17 7 C-15.49578991 3.99157981 -13.14864383 3.3199263 -10.1875 1.8125 C-9.12917969 1.26207031 -8.07085937 0.71164062 -6.98046875 0.14453125 C-3.96877469 -1.01199085 -2.9122997 -1.21992215 0 0 Z " fill="#44565D" transform="translate(371,366)"/>
<path d="M0 0 C-0.99 0.495 -0.99 0.495 -2 1 C-2.33 1.99 -2.66 2.98 -3 4 C-5.3125 5.8125 -5.3125 5.8125 -8 7 C-10.3125 6.1875 -10.3125 6.1875 -12 5 C-12 4.01 -12 3.02 -12 2 C-7.8803623 0.70756464 -4.33168317 -0.26252625 0 0 Z " fill="#2A414A" transform="translate(327,340)"/>
<path d="M0 0 C0.99 0.33 1.98 0.66 3 1 C3.06058594 1.85464844 3.12117188 2.70929688 3.18359375 3.58984375 C3.26738281 4.69457031 3.35117187 5.79929688 3.4375 6.9375 C3.51871094 8.03964844 3.59992188 9.14179688 3.68359375 10.27734375 C3.70418084 12.91109903 3.70418084 12.91109903 5 14 C5.07226502 15.85287502 5.0838122 17.70833878 5.0625 19.5625 C5.05347656 20.57441406 5.04445313 21.58632812 5.03515625 22.62890625 C5.02355469 23.41136719 5.01195312 24.19382813 5 25 C2.50025548 22.50025548 2.5674489 21.23980451 2.1484375 17.7734375 C2.01953125 16.7421875 1.890625 15.7109375 1.7578125 14.6484375 C1.63148438 13.56820312 1.50515625 12.48796875 1.375 11.375 C1.2409375 10.28703125 1.106875 9.1990625 0.96875 8.078125 C0.63816929 5.38625352 0.31559931 2.69366222 0 0 Z " fill="#46585E" transform="translate(402,209)"/>
<path d="M0 0 C0.66 0.33 1.32 0.66 2 1 C-1.39005091 4.70786818 -4.78639942 7.26915764 -9.1328125 9.7890625 C-11.02537338 11.01645554 -12.46733107 12.35309488 -14 14 C-14.66 13.67 -15.32 13.34 -16 13 C-14.0884175 11.20263155 -12.17113816 9.41210526 -10.25 7.625 C-9.71117187 7.11710938 -9.17234375 6.60921875 -8.6171875 6.0859375 C-3.22708275 1.09023066 -3.22708275 1.09023066 0 0 Z " fill="#4C5F63" transform="translate(168,178)"/>
<path d="M0 0 C0.33 0.99 0.66 1.98 1 3 C-1.41698499 4.94918144 -3.18746401 6.00815254 -6.3359375 5.9765625 C-8.57364473 5.71537901 -10.78327805 5.40084514 -13 5 C-13 4.34 -13 3.68 -13 3 C-8.6835078 2.23826608 -5.25566547 1.83936396 -1 3 C-0.67 2.01 -0.34 1.02 0 0 Z " fill="#3A4F56" transform="translate(209,282)"/>
<path d="M0 0 C1.00496852 3.01490557 1.10335303 5.04181692 1.0625 8.1875 C1.05347656 9.08855469 1.04445313 9.98960938 1.03515625 10.91796875 C1.02355469 11.60503906 1.01195312 12.29210937 1 13 C0.01 13.495 0.01 13.495 -1 14 C-0.98839844 13.30132812 -0.97679687 12.60265625 -0.96484375 11.8828125 C-0.95582031 10.97273438 -0.94679688 10.06265625 -0.9375 9.125 C-0.92589844 8.22007813 -0.91429687 7.31515625 -0.90234375 6.3828125 C-0.83750743 3.9831415 -0.83750743 3.9831415 -2 2 C-7.32170494 1.70437633 -7.32170494 1.70437633 -12 4 C-11.05104075 1.62760188 -10.27535377 0.21634939 -8.25 -1.375 C-4.96441506 -2.28766248 -3.03276966 -1.41529251 0 0 Z " fill="#42555B" transform="translate(348,110)"/>
<path d="M0 0 C1.1034375 0.15339844 2.206875 0.30679687 3.34375 0.46484375 C8.3851341 1.09501676 13.42686479 1.33760084 18.5 1.5625 C19.4178125 1.60568359 20.335625 1.64886719 21.28125 1.69335938 C23.52072061 1.79833456 25.76028092 1.90049248 28 2 C28 2.33 28 2.66 28 3 C15.625 3.495 15.625 3.495 3 4 C3 3.34 3 2.68 3 2 C2.01 1.67 1.02 1.34 0 1 C0 0.67 0 0.34 0 0 Z " fill="#31454B" transform="translate(232,357)"/>
<path d="M0 0 C1.67542976 0.28604898 3.34385343 0.61781233 5 1 C5 1.33 5 1.66 5 2 C3.35 2 1.7 2 0 2 C0 2.99 0 3.98 0 5 C0.66 5 1.32 5 2 5 C1.67 7.97 1.34 10.94 1 14 C-0.32 13.01 -1.64 12.02 -3 11 C-2.69217504 9.35328588 -2.37860766 7.70764424 -2.0625 6.0625 C-1.88847656 5.14597656 -1.71445312 4.22945312 -1.53515625 3.28515625 C-1 1 -1 1 0 0 Z " fill="#41545A" transform="translate(339,151)"/>
<path d="M0 0 C1.23809524 4.95238095 1.23809524 4.95238095 0 8 C-2.0625 10.25 -2.0625 10.25 -4 12 C-4.99 11.67 -5.98 11.34 -7 11 C-4.69 7.37 -2.38 3.74 0 0 Z " fill="#243E4B" transform="translate(78,132)"/>
<path d="M0 0 C0.66 0 1.32 0 2 0 C2 1.65 2 3.3 2 5 C6.3164922 5.76173392 9.74433453 6.16063604 14 5 C12.58480285 7.0343459 11.45017877 7.90410393 9.01953125 8.421875 C7.01823046 8.66273952 5.0090056 8.83532741 3 9 C0 2.25 0 2.25 0 0 Z " fill="#43555B" transform="translate(165,117)"/>
<path d="M0 0 C0.66 0 1.32 0 2 0 C2 0.99 2 1.98 2 3 C1.34 3 0.68 3 0 3 C-0.04125 3.598125 -0.0825 4.19625 -0.125 4.8125 C-1 7 -1 7 -3.75 8.6875 C-6.55354068 9.81969912 -9.02140896 10.56197191 -12 11 C-10 8 -10 8 -7.125 6.625 C-3.72310371 4.85601393 -2.28147122 3.01480125 0 0 Z " fill="#626F73" transform="translate(408,341)"/>
<path d="M0 0 C0.33 0.99 0.66 1.98 1 3 C3.64 3.33 6.28 3.66 9 4 C9 4.66 9 5.32 9 6 C7.5608866 5.71640113 6.12374482 5.42278601 4.6875 5.125 C3.88699219 4.96257812 3.08648437 4.80015625 2.26171875 4.6328125 C0 4 0 4 -3 2 C-5.27538323 1.33386665 -5.27538323 1.33386665 -7.6875 0.875 C-8.49574219 0.70742188 -9.30398437 0.53984375 -10.13671875 0.3671875 C-10.75160156 0.24601562 -11.36648437 0.12484375 -12 0 C-11.38125 -0.15082031 -10.7625 -0.30164063 -10.125 -0.45703125 C-8.00418549 -0.96842838 -8.00418549 -0.96842838 -6 -1.6875 C-3.34613027 -2.10216715 -2.18697087 -1.50825577 0 0 Z " fill="#607277" transform="translate(218,334)"/>
<path d="M0 0 C0.71484375 1.734375 0.71484375 1.734375 1 4 C-0.43359375 6.140625 -0.43359375 6.140625 -2.4375 8.25 C-3.09621094 8.95640625 -3.75492187 9.6628125 -4.43359375 10.390625 C-4.95050781 10.92171875 -5.46742188 11.4528125 -6 12 C-7.32 11.67 -8.64 11.34 -10 11 C-9.44570313 10.54109375 -8.89140625 10.0821875 -8.3203125 9.609375 C-7.59585937 8.99578125 -6.87140625 8.3821875 -6.125 7.75 C-5.04605469 6.84507812 -5.04605469 6.84507812 -3.9453125 5.921875 C-2.02947882 4.02912366 -1.03550955 2.46342273 0 0 Z " fill="#516367" transform="translate(330,285)"/>
<path d="M0 0 C2 1 2 1 2.8515625 2.93359375 C4.75813372 9.10587734 5.37028295 14.5543339 5 21 C2.56198667 17.05677844 2.10550869 12.74486471 1.375 8.25 C1.17390625 7.06083984 1.17390625 7.06083984 0.96875 5.84765625 C0.64012702 3.89939142 0.31929295 1.94981561 0 0 Z " fill="#637076" transform="translate(411,261)"/>
<path d="M0 0 C4.95 0 9.9 0 15 0 C15 0.33 15 0.66 15 1 C3.47835991 3.11161731 3.47835991 3.11161731 -2 4 C-1.34 2.68 -0.68 1.36 0 0 Z " fill="#4C5F67" transform="translate(336,315)"/>
<path d="M0 0 C2.54032055 0.01796549 5.04320014 0.118343 7.57421875 0.33203125 C5.62495053 2.28129947 4.06351295 3.26772121 1.63671875 4.51953125 C0.94707031 4.88433594 0.25742187 5.24914062 -0.453125 5.625 C-2.42578125 6.33203125 -2.42578125 6.33203125 -5.42578125 5.33203125 C-4.29102155 2.08986068 -3.53506819 0.48386602 0 0 Z " fill="#304751" transform="translate(370.42578125,344.66796875)"/>
<path d="M0 0 C1.16402344 -0.02126953 1.16402344 -0.02126953 2.3515625 -0.04296875 C4.375 0.1875 4.375 0.1875 6.375 2.1875 C5.43527344 2.27837891 5.43527344 2.27837891 4.4765625 2.37109375 C3.65929687 2.45488281 2.84203125 2.53867188 2 2.625 C1.18789063 2.70621094 0.37578125 2.78742188 -0.4609375 2.87109375 C-2.66772805 3.07840114 -2.66772805 3.07840114 -4.625 4.1875 C-4.625 3.5275 -4.625 2.8675 -4.625 2.1875 C-6.275 2.5175 -7.925 2.8475 -9.625 3.1875 C-8.625 1.1875 -8.625 1.1875 -6.8515625 0.57421875 C-4.5318787 0.1713263 -2.35383859 0.01968092 0 0 Z " fill="#4D6168" transform="translate(299.625,243.8125)"/>
<path d="M0 0 C3.21764451 4.82646677 4.36261136 10.19821824 4 16 C1.34493073 13.59384348 0.07835303 11.82040233 -0.265625 8.21875 C-0.25145444 5.46966145 -0.17296687 2.74344679 0 0 Z " fill="#32494F" transform="translate(395,263)"/>
<path d="M0 0 C-1.4258086 3.45195767 -3.09746334 5.1014256 -6.125 7.25 C-7.21167969 8.03117188 -7.21167969 8.03117188 -8.3203125 8.828125 C-8.87460937 9.21484375 -9.42890625 9.6015625 -10 10 C-5.2238806 0 -5.2238806 0 0 0 Z " fill="#5E6E75" transform="translate(290,247)"/>
<path d="M0 0 C0.33 0 0.66 0 1 0 C1.31985731 6.71700347 0.4793824 11.75726932 -2 18 C-3.23853632 14.38905609 -2.79209453 11.59428048 -2.125 7.875 C-1.85042969 6.29332031 -1.85042969 6.29332031 -1.5703125 4.6796875 C-1 2 -1 2 0 0 Z " fill="#647579" transform="translate(114,216)"/>
<path d="M0 0 C3.67420866 0.30618405 4.78135513 0.75771784 7.3125 3.5625 C8.1478125 4.7690625 8.1478125 4.7690625 9 6 C8.01 6.495 8.01 6.495 7 7 C3.34952803 5.26602582 1.44390925 3.80666984 0 0 Z " fill="#354B52" transform="translate(336,184)"/>
<path d="M0 0 C2.475 0.495 2.475 0.495 5 1 C5 1.66 5 2.32 5 3 C5.78375 3.103125 6.5675 3.20625 7.375 3.3125 C10 4 10 4 12 7 C11.01 7.33 10.02 7.66 9 8 C7.2925002 6.71937515 5.62626404 5.38232443 4 4 C3.01 3.67 2.02 3.34 1 3 C0.67 2.01 0.34 1.02 0 0 Z " fill="#394F55" transform="translate(322,350)"/>
<path d="M0 0 C0.33 0 0.66 0 1 0 C1.05389087 1.95803507 1.09274217 3.91648909 1.125 5.875 C1.14820312 6.96554687 1.17140625 8.05609375 1.1953125 9.1796875 C1 12 1 12 -1 14 C-1.69748583 15.31747324 -2.36959957 16.64914193 -3 18 C-2.51679152 11.7945858 -1.66681876 6.00054754 0 0 Z " fill="#DCE2E3" transform="translate(90,256)"/>
<path d="M0 0 C1.32 0.33 2.64 0.66 4 1 C2.7934375 2.175625 2.7934375 2.175625 1.5625 3.375 C-0.98690417 5.71982856 -0.98690417 5.71982856 -2 8 C-3.32 7.67 -4.64 7.34 -6 7 C-4.02 4.69 -2.04 2.38 0 0 Z " fill="#344C51" transform="translate(146,198)"/>
<path d="M0 0 C2.125 0.9375 2.125 0.9375 4 2 C0.55930376 4.29379749 -0.72290301 5 -5 5 C-5.33 5.66 -5.66 6.32 -6 7 C-6.66 6.34 -7.32 5.68 -8 5 C-6.02 4.34 -4.04 3.68 -2 3 C-2 2.34 -2 1.68 -2 1 C-1.34 0.67 -0.68 0.34 0 0 Z " fill="#495B61" transform="translate(392,353)"/>
<path d="M0 0 C0.66 0.33 1.32 0.66 2 1 C0.95285076 2.32477959 -0.11344669 3.63443746 -1.1875 4.9375 C-1.77917969 5.66839844 -2.37085938 6.39929688 -2.98046875 7.15234375 C-5.32505203 9.29738803 -6.88391498 9.66094412 -10 10 C-6.66666667 6.66666667 -3.33333333 3.33333333 0 0 Z " fill="#D0DADA" transform="translate(182,346)"/>
<path d="M0 0 C0.99 0.99 1.98 1.98 3 3 C2.67 3.66 2.34 4.32 2 5 C1.01 4.34 0.02 3.68 -1 3 C-1 3.66 -1 4.32 -1 5 C-2.75 6.0625 -2.75 6.0625 -5 7 C-6.32 6.67 -7.64 6.34 -9 6 C-6.03 4.02 -3.06 2.04 0 0 Z " fill="#2C444F" transform="translate(139,73)"/>
<path d="M0 0 C-4.26311718 4.12989477 -7.28758534 4.61271765 -13 5 C-11.5977422 2.1954844 -9.93929378 1.9557882 -7.0625 0.8125 C-6.16660156 0.44769531 -5.27070313 0.08289063 -4.34765625 -0.29296875 C-2 -1 -2 -1 0 0 Z " fill="#5B6B71" transform="translate(384,360)"/>
<path d="M0 0 C1 2 1 2 -0.125 5.4375 C-1.68880731 8.92879075 -3.479691 10.38256073 -7 12 C-5.61735163 9.13132769 -4.07851447 6.43975968 -2.375 3.75 C-1.92898438 3.04359375 -1.48296875 2.3371875 -1.0234375 1.609375 C-0.68570312 1.07828125 -0.34796875 0.5471875 0 0 Z " fill="#68767A" transform="translate(417,329)"/>
<path d="M0 0 C0.58265625 0.22558594 1.1653125 0.45117188 1.765625 0.68359375 C1.105625 0.68359375 0.445625 0.68359375 -0.234375 0.68359375 C-0.234375 1.34359375 -0.234375 2.00359375 -0.234375 2.68359375 C-3.234375 4.68359375 -3.234375 4.68359375 -6.234375 4.68359375 C-5.904375 5.67359375 -5.574375 6.66359375 -5.234375 7.68359375 C-6.554375 7.02359375 -7.874375 6.36359375 -9.234375 5.68359375 C-8.16544282 4.64769037 -7.07859012 3.63025433 -5.984375 2.62109375 C-5.38109375 2.05261719 -4.7778125 1.48414062 -4.15625 0.8984375 C-2.234375 -0.31640625 -2.234375 -0.31640625 0 0 Z " fill="#263D46" transform="translate(124.234375,85.31640625)"/>
<path d="M0 0 C0.33 0.99 0.66 1.98 1 3 C-3.625 7 -3.625 7 -7 7 C-7 6.34 -7 5.68 -7 5 C-6.34 5 -5.68 5 -5 5 C-5 4.34 -5 3.68 -5 3 C-2.5 1.375 -2.5 1.375 0 0 Z " fill="#526368" transform="translate(178,370)"/>
<path d="M0 0 C2.12508244 3.18762365 2.5020163 5.26512223 3 9 C1.68 9.99 0.36 10.98 -1 12 C-0.67 8.04 -0.34 4.08 0 0 Z " fill="#46585B" transform="translate(160,153)"/>
<path d="M0 0 C6.26638478 1.0845666 6.26638478 1.0845666 8.35546875 3.69140625 C9.32087881 5.41659751 10.16943988 7.20599015 11 9 C8.03469503 7.64199529 5.70868729 6.07571737 3.25 3.9375 C2.63640625 3.41027344 2.0228125 2.88304687 1.390625 2.33984375 C0.93171875 1.89769531 0.4728125 1.45554688 0 1 C0 0.67 0 0.34 0 0 Z " fill="#4E5F64" transform="translate(356,142)"/>
<path d="M0 0 C1.48199902 0.44909061 2.96055236 0.90956564 4.4375 1.375 C5.26121094 1.63023437 6.08492188 1.88546875 6.93359375 2.1484375 C9 3 9 3 10 5 C3.51707705 5.3669579 3.51707705 5.3669579 1.0625 3.625 C0 2 0 2 0 0 Z " fill="#54666D" transform="translate(102,352)"/>
<path d="M0 0 C0.33 1.32 0.66 2.64 1 4 C-0.65 4.33 -2.3 4.66 -4 5 C-4 6.32 -4 7.64 -4 9 C-4.66 9 -5.32 9 -6 9 C-5.8125 6.1875 -5.8125 6.1875 -5 3 C-2.4375 1.125 -2.4375 1.125 0 0 Z " fill="#45595F" transform="translate(121,207)"/>
<path d="M0 0 C1.32 0.33 2.64 0.66 4 1 C4 1.66 4 2.32 4 3 C5.65 3.33 7.3 3.66 9 4 C8.67 5.32 8.34 6.64 8 8 C5.5 6.6875 5.5 6.6875 3 5 C3 4.01 3 3.02 3 2 C2.01 1.67 1.02 1.34 0 1 C0 0.67 0 0.34 0 0 Z " fill="#56686B" transform="translate(350,173)"/>
<path d="M0 0 C0.66 0.33 1.32 0.66 2 1 C-3 7.57142857 -3 7.57142857 -8 9 C-7.04270084 7.87411986 -6.08412105 6.7493285 -5.125 5.625 C-4.59132812 4.99851563 -4.05765625 4.37203125 -3.5078125 3.7265625 C-2.38567993 2.44163349 -1.20628025 1.20628025 0 0 Z " fill="#C2CBCA" transform="translate(151,170)"/>
<path d="M0 0 C1.508013 0.92455559 3.00624917 1.8650747 4.5 2.8125 C5.75296875 3.59560547 5.75296875 3.59560547 7.03125 4.39453125 C7.6809375 4.92433594 8.330625 5.45414062 9 6 C9 6.99 9 7.98 9 9 C5.125 7.25 5.125 7.25 4 5 C3.01 4.67 2.02 4.34 1 4 C0.3125 1.9375 0.3125 1.9375 0 0 Z " fill="#263B45" transform="translate(370,80)"/>
<path d="M0 0 C5.75 1.875 5.75 1.875 8 3 C7.67 4.65 7.34 6.3 7 8 C4 6 4 6 3 3 C1.50014391 1.33289654 1.50014391 1.33289654 0 0 Z " fill="#52666C" transform="translate(226,238)"/>
<path d="M0 0 C0.66 0.33 1.32 0.66 2 1 C1.39009109 4.55780196 0.4216319 7.6828589 -1 11 C-2.11074104 7.66777687 -1.88927847 5.37925818 -1 2 C-0.67 1.34 -0.34 0.68 0 0 Z " fill="#51656C" transform="translate(100,203)"/>
<path d="M0 0 C9.41002278 0.96355353 9.41002278 0.96355353 14 2 C14 2.33 14 2.66 14 3 C6.57142857 4.28571429 6.57142857 4.28571429 3 3 C3 2.34 3 1.68 3 1 C2.01 0.67 1.02 0.34 0 0 Z " fill="#68797E" transform="translate(269,155)"/>
<path d="M0 0 C-0.33 0.99 -0.66 1.98 -1 3 C-6.28 3 -11.56 3 -17 3 C-14.24954445 0.24954445 -12.33444231 0.60404855 -8.5 0.375 C-7.3346875 0.30023438 -6.169375 0.22546875 -4.96875 0.1484375 C-3.31382845 0.06569142 -1.65698891 0 0 0 Z " fill="#506267" transform="translate(207,134)"/>
<path d="M0 0 C0.99 0.66 1.98 1.32 3 2 C2.38722388 4.96175123 1.74627478 6.38058783 0 9 C-0.66 9 -1.32 9 -2 9 C-1.34 6.03 -0.68 3.06 0 0 Z " fill="#294048" transform="translate(419,324)"/>
<path d="M0 0 C0.33 0 0.66 0 1 0 C1.36552803 1.41377782 1.71695495 2.83120576 2.0625 4.25 C2.25972656 5.03890625 2.45695312 5.8278125 2.66015625 6.640625 C3.01497267 9.10394822 2.76877544 10.65604132 2 13 C1.34 13 0.68 13 0 13 C0 8.71 0 4.42 0 0 Z " fill="#3B4E54" transform="translate(392,245)"/>
<path d="M0 0 C2.125 0.375 2.125 0.375 4 1 C-0.625 5.875 -0.625 5.875 -4 7 C-2.92598892 4.08482708 -2.22189824 2.22189824 0 0 Z " fill="#374E54" transform="translate(178,234)"/>
<path d="M0 0 C0 0.33 0 0.66 0 1 C-1.41377782 1.36552803 -2.83120576 1.71695495 -4.25 2.0625 C-5.03890625 2.25972656 -5.8278125 2.45695313 -6.640625 2.66015625 C-9.10394822 3.01497267 -10.65604132 2.76877544 -13 2 C-9.16001987 -2.17389144 -5.07563763 -0.9001665 0 0 Z " fill="#394C52" transform="translate(221,140)"/>
<path d="M0 0 C1 3 1 3 1 7 C0.01 6.67 -0.98 6.34 -2 6 C-2.99 7.32 -3.98 8.64 -5 10 C-4.3538439 5.04613656 -3.48520451 3.48520451 0 0 Z " fill="#394E57" transform="translate(349,124)"/>
<path d="M0 0 C0.99 0.33 1.98 0.66 3 1 C3 1.99 3 2.98 3 4 C3.66 4.33 4.32 4.66 5 5 C4.01 5.33 3.02 5.66 2 6 C0.68 4.35 -0.64 2.7 -2 1 C-1.34 0.67 -0.68 0.34 0 0 Z " fill="#263F49" transform="translate(103,394)"/>
<path d="M0 0 C0.66 0.33 1.32 0.66 2 1 C2 3 2 3 0.5625 4.5 C0.046875 4.995 -0.46875 5.49 -1 6 C-1.33 6.66 -1.66 7.32 -2 8 C-2.99 7.67 -3.98 7.34 -5 7 C-3.35 4.69 -1.7 2.38 0 0 Z " fill="#28434E" transform="translate(84,124)"/>
<path d="M0 0 C0 0.99 0 1.98 0 3 C-3.33333333 6 -3.33333333 6 -6 6 C-5.8125 4.125 -5.8125 4.125 -5 2 C-2.4375 0.75 -2.4375 0.75 0 0 Z " fill="#45595F" transform="translate(399,329)"/>
<path d="M0 0 C-0.33 0.99 -0.66 1.98 -1 3 C-4.63 3.66 -8.26 4.32 -12 5 C-11 3 -11 3 -9.00390625 2.1484375 C-8.19824219 1.89320313 -7.39257812 1.63796875 -6.5625 1.375 C-5.75941406 1.11460937 -4.95632813 0.85421875 -4.12890625 0.5859375 C-2 0 -2 0 0 0 Z " fill="#66777C" transform="translate(354,329)"/>
<path d="M0 0 C0.33 1.32 0.66 2.64 1 4 C-0.65 5.32 -2.3 6.64 -4 8 C-4 4.09161134 -2.49432124 2.88405893 0 0 Z " fill="#5A6D70" transform="translate(233,285)"/>
<path d="M0 0 C1.98 0 3.96 0 6 0 C6.33 0.99 6.66 1.98 7 3 C5.68 3.33 4.36 3.66 3 4 C2.01 2.68 1.02 1.36 0 0 Z " fill="#41555C" transform="translate(221,234)"/>
<path d="M0 0 C2.31 0 4.62 0 7 0 C6.401875 0.268125 5.80375 0.53625 5.1875 0.8125 C1.77915781 2.6627429 0.14857639 4.77713542 -2 8 C-1.47731534 5.23723823 -0.89130413 2.6739124 0 0 Z " fill="#C4CFD0" transform="translate(290,115)"/>
<path d="M0 0 C0.99 0.33 1.98 0.66 3 1 C0.03 3.475 0.03 3.475 -3 6 C-3.33 5.01 -3.66 4.02 -4 3 C-2.1875 1.4375 -2.1875 1.4375 0 0 Z " fill="#30464E" transform="translate(171,353)"/>
<path d="M0 0 C1.65 0 3.3 0 5 0 C4.67 1.65 4.34 3.3 4 5 C2.68 4.34 1.36 3.68 0 3 C0 2.01 0 1.02 0 0 Z " fill="#5D6A6E" transform="translate(315,342)"/>
<path d="M0 0 C0.33 0.99 0.66 1.98 1 3 C-0.98 4.32 -2.96 5.64 -5 7 C-5.66 6.67 -6.32 6.34 -7 6 C-4.69 4.02 -2.38 2.04 0 0 Z " fill="#C7D1D1" transform="translate(397,332)"/>
<path d="M0 0 C0.66 0.33 1.32 0.66 2 1 C1.34 3.97 0.68 6.94 0 10 C-0.66 9.34 -1.32 8.68 -2 8 C-1.69347955 5.0574037 -1.32728846 2.65457692 0 0 Z " fill="#2A3F49" transform="translate(452,293)"/>
<path d="M0 0 C0.66 1.32 1.32 2.64 2 4 C0.67172689 6.85578718 -0.14643942 8.57321971 -3 10 C-2.01 6.7 -1.02 3.4 0 0 Z " fill="#68797B" transform="translate(334,275)"/>
<path d="M0 0 C8.19256018 -0.4726477 8.19256018 -0.4726477 11.5625 1.5 C12.036875 1.995 12.51125 2.49 13 3 C8.65535464 2.39174965 4.32448133 1.73832608 0 1 C0 0.67 0 0.34 0 0 Z " fill="#4F5F64" transform="translate(277,140)"/>
<path d="M0 0 C2.64 0.33 5.28 0.66 8 1 C8 1.33 8 1.66 8 2 C4.7 2.33 1.4 2.66 -2 3 C-1.34 2.01 -0.68 1.02 0 0 Z " fill="#32454D" transform="translate(226,137)"/>
<path d="M0 0 C1.65 0 3.3 0 5 0 C5.33 0.66 5.66 1.32 6 2 C5.34 2 4.68 2 4 2 C4 2.66 4 3.32 4 4 C1.525 3.01 1.525 3.01 -1 2 C-0.67 1.34 -0.34 0.68 0 0 Z " fill="#3D535A" transform="translate(298,114)"/>
<path d="M0 0 C-1.1875 1.5625 -1.1875 1.5625 -3 3 C-5.6875 2.6875 -5.6875 2.6875 -8 2 C-8 1.34 -8 0.68 -8 0 C-4.94736336 -0.98120464 -3.05263664 -0.98120464 0 0 Z " fill="#475B61" transform="translate(335,338)"/>
<path d="M0 0 C1.32 0.99 2.64 1.98 4 3 C-0.05431692 4.15837626 -2.21812119 3.83691257 -6 2 C-2.25 0.875 -2.25 0.875 0 2 C0 1.34 0 0.68 0 0 Z " fill="#334C57" transform="translate(195,282)"/>
<path d="M0 0 C3.375 0.25 3.375 0.25 7 1 C8.4375 3.0625 8.4375 3.0625 9 5 C8.34 5 7.68 5 7 5 C7 4.34 7 3.68 7 3 C5.824375 2.814375 5.824375 2.814375 4.625 2.625 C2 2 2 2 0 0 Z " fill="#3A4F54" transform="translate(208,247)"/>
</svg>
